<svg width="32" height="32" viewBox="0 0 64 64" fill="none" xmlns="http://www.w3.org/2000/svg">
  <!-- Background -->
  <rect x="2" y="2" width="60" height="60" rx="14" fill="#2F6A6A15" stroke="#2F6A6A" stroke-width="2"/>
  
  <!-- Shop icon (scaled) -->
  <g transform="translate(10, 11) scale(1.8)">
    <!-- House/shop body -->
    <path d="M3.01 11.22V15.71C3.01 20.2 4.81 22 9.3 22H14.69C19.18 22 20.98 20.2 20.98 15.71V11.22" 
          stroke="#2F6A6A" stroke-width="1.3" stroke-linecap="round" stroke-linejoin="round" fill="none"/>
    <!-- Awning center -->
    <path d="M12 12C13.83 12 15.18 10.51 15 8.68L14.34 2H9.67L9 8.68C8.82 10.51 10.17 12 12 12Z" 
          stroke="#2F6A6A" stroke-width="1.3" stroke-linecap="round" stroke-linejoin="round" fill="none"/>
    <!-- Awning right -->
    <path d="M18.31 12C20.33 12 21.81 10.36 21.61 8.35L21.33 5.6C20.97 3 19.97 2 17.35 2H14.3L15 9.01C15.17 10.66 16.66 12 18.31 12Z" 
          stroke="#2F6A6A" stroke-width="1.3" stroke-linecap="round" stroke-linejoin="round" fill="none"/>
    <!-- Awning left -->
    <path d="M5.64 12C7.29 12 8.78 10.66 8.94 9.01L9.16 6.8L9.64 2H6.59C3.97 2 2.97 3 2.61 5.6L2.34 8.35C2.14 10.36 3.62 12 5.64 12Z" 
          stroke="#2F6A6A" stroke-width="1.3" stroke-linecap="round" stroke-linejoin="round" fill="none"/>
  </g>
  
  <!-- "iL" text inside the shop body - centered -->
  <text x="32" y="48" font-family="Poppins, sans-serif" font-size="18" font-weight="700" text-anchor="middle">
    <tspan fill="#2E7D6B">i</tspan>
    <tspan fill="#2F6A6A">L</tspan>
  </text>
</svg>
